<mxfile host="app.diagrams.net" modified="2021-04-19T13:48:18.208Z" agent="5.0 (Macintosh; Intel Mac OS X 10_14_6) AppleWebKit/537.36 (KHTML, like Gecko) Chrome/89.0.4389.114 Safari/537.36" etag="u9MK4KXJyqfwNAwC9V0B" version="14.6.1" type="github">
  <diagram id="44xOm_aFbOaxe-al7pJK" name="Page-1">
    <mxGraphModel dx="706" dy="411" grid="1" gridSize="10" guides="1" tooltips="1" connect="1" arrows="1" fold="1" page="1" pageScale="1" pageWidth="827" pageHeight="1169" math="0" shadow="0">
      <root>
        <mxCell id="0" />
        <mxCell id="1" parent="0" />
        <mxCell id="ARpYUTqPWLCl9Obt1leV-26" style="edgeStyle=orthogonalEdgeStyle;rounded=0;orthogonalLoop=1;jettySize=auto;html=1;entryX=0.5;entryY=0;entryDx=0;entryDy=0;" edge="1" parent="1" source="ARpYUTqPWLCl9Obt1leV-3" target="ARpYUTqPWLCl9Obt1leV-25">
          <mxGeometry relative="1" as="geometry" />
        </mxCell>
        <mxCell id="ARpYUTqPWLCl9Obt1leV-3" value="&lt;span&gt;小批数据&lt;/span&gt;" style="rounded=0;whiteSpace=wrap;html=1;fillColor=#d5e8d4;strokeColor=#82b366;" vertex="1" parent="1">
          <mxGeometry x="280" y="160" width="80" height="40" as="geometry" />
        </mxCell>
        <mxCell id="ARpYUTqPWLCl9Obt1leV-27" style="edgeStyle=orthogonalEdgeStyle;rounded=0;orthogonalLoop=1;jettySize=auto;html=1;entryX=0.5;entryY=0;entryDx=0;entryDy=0;" edge="1" parent="1" source="ARpYUTqPWLCl9Obt1leV-4" target="ARpYUTqPWLCl9Obt1leV-12">
          <mxGeometry relative="1" as="geometry" />
        </mxCell>
        <mxCell id="ARpYUTqPWLCl9Obt1leV-4" value="&lt;span&gt;小批数据&lt;/span&gt;" style="rounded=0;whiteSpace=wrap;html=1;fillColor=#d5e8d4;strokeColor=#82b366;" vertex="1" parent="1">
          <mxGeometry x="440" y="160" width="80" height="40" as="geometry" />
        </mxCell>
        <mxCell id="ARpYUTqPWLCl9Obt1leV-21" value="" style="edgeStyle=orthogonalEdgeStyle;rounded=0;orthogonalLoop=1;jettySize=auto;html=1;" edge="1" parent="1" source="ARpYUTqPWLCl9Obt1leV-5" target="ARpYUTqPWLCl9Obt1leV-3">
          <mxGeometry relative="1" as="geometry" />
        </mxCell>
        <mxCell id="ARpYUTqPWLCl9Obt1leV-22" style="edgeStyle=orthogonalEdgeStyle;rounded=0;orthogonalLoop=1;jettySize=auto;html=1;exitX=0.25;exitY=1;exitDx=0;exitDy=0;entryX=0.5;entryY=0;entryDx=0;entryDy=0;" edge="1" parent="1" source="ARpYUTqPWLCl9Obt1leV-5" target="ARpYUTqPWLCl9Obt1leV-6">
          <mxGeometry relative="1" as="geometry" />
        </mxCell>
        <mxCell id="ARpYUTqPWLCl9Obt1leV-23" style="edgeStyle=orthogonalEdgeStyle;rounded=0;orthogonalLoop=1;jettySize=auto;html=1;exitX=0.75;exitY=1;exitDx=0;exitDy=0;entryX=0.5;entryY=0;entryDx=0;entryDy=0;" edge="1" parent="1" source="ARpYUTqPWLCl9Obt1leV-5" target="ARpYUTqPWLCl9Obt1leV-4">
          <mxGeometry relative="1" as="geometry" />
        </mxCell>
        <mxCell id="ARpYUTqPWLCl9Obt1leV-5" value="&lt;span&gt;读数据&lt;/span&gt;" style="rounded=0;whiteSpace=wrap;html=1;fillColor=#f8cecc;strokeColor=#b85450;" vertex="1" parent="1">
          <mxGeometry x="280" y="80" width="80" height="40" as="geometry" />
        </mxCell>
        <mxCell id="ARpYUTqPWLCl9Obt1leV-24" style="edgeStyle=orthogonalEdgeStyle;rounded=0;orthogonalLoop=1;jettySize=auto;html=1;exitX=0.5;exitY=1;exitDx=0;exitDy=0;entryX=0.5;entryY=0;entryDx=0;entryDy=0;" edge="1" parent="1" source="ARpYUTqPWLCl9Obt1leV-6" target="ARpYUTqPWLCl9Obt1leV-10">
          <mxGeometry relative="1" as="geometry" />
        </mxCell>
        <mxCell id="ARpYUTqPWLCl9Obt1leV-6" value="小批数据" style="rounded=0;whiteSpace=wrap;html=1;fillColor=#d5e8d4;strokeColor=#82b366;" vertex="1" parent="1">
          <mxGeometry x="130" y="160" width="80" height="40" as="geometry" />
        </mxCell>
        <mxCell id="ARpYUTqPWLCl9Obt1leV-43" value="" style="edgeStyle=orthogonalEdgeStyle;rounded=0;orthogonalLoop=1;jettySize=auto;html=1;dashed=1;" edge="1" parent="1" source="ARpYUTqPWLCl9Obt1leV-9" target="ARpYUTqPWLCl9Obt1leV-16">
          <mxGeometry relative="1" as="geometry" />
        </mxCell>
        <mxCell id="ARpYUTqPWLCl9Obt1leV-44" value="2" style="edgeLabel;html=1;align=center;verticalAlign=middle;resizable=0;points=[];" vertex="1" connectable="0" parent="ARpYUTqPWLCl9Obt1leV-43">
          <mxGeometry x="-0.2" y="2" relative="1" as="geometry">
            <mxPoint as="offset" />
          </mxGeometry>
        </mxCell>
        <mxCell id="ARpYUTqPWLCl9Obt1leV-9" value="损失" style="rounded=0;whiteSpace=wrap;html=1;fillColor=#e1d5e7;strokeColor=#9673a6;dashed=1;" vertex="1" parent="1">
          <mxGeometry x="130" y="320" width="80" height="40" as="geometry" />
        </mxCell>
        <mxCell id="ARpYUTqPWLCl9Obt1leV-31" style="edgeStyle=orthogonalEdgeStyle;rounded=0;orthogonalLoop=1;jettySize=auto;html=1;entryX=0.5;entryY=0;entryDx=0;entryDy=0;" edge="1" parent="1" source="ARpYUTqPWLCl9Obt1leV-10" target="ARpYUTqPWLCl9Obt1leV-16">
          <mxGeometry relative="1" as="geometry">
            <Array as="points">
              <mxPoint x="170" y="300" />
              <mxPoint x="320" y="300" />
            </Array>
          </mxGeometry>
        </mxCell>
        <mxCell id="ARpYUTqPWLCl9Obt1leV-41" value="1" style="edgeLabel;html=1;align=center;verticalAlign=middle;resizable=0;points=[];" vertex="1" connectable="0" parent="ARpYUTqPWLCl9Obt1leV-31">
          <mxGeometry x="0.0421" relative="1" as="geometry">
            <mxPoint as="offset" />
          </mxGeometry>
        </mxCell>
        <mxCell id="ARpYUTqPWLCl9Obt1leV-37" style="edgeStyle=orthogonalEdgeStyle;rounded=0;orthogonalLoop=1;jettySize=auto;html=1;exitX=0.5;exitY=1;exitDx=0;exitDy=0;entryX=0.5;entryY=0;entryDx=0;entryDy=0;dashed=1;" edge="1" parent="1" source="ARpYUTqPWLCl9Obt1leV-10" target="ARpYUTqPWLCl9Obt1leV-9">
          <mxGeometry relative="1" as="geometry" />
        </mxCell>
        <mxCell id="ARpYUTqPWLCl9Obt1leV-10" value="前向" style="rounded=0;whiteSpace=wrap;html=1;fillColor=#ffe6cc;strokeColor=#d79b00;" vertex="1" parent="1">
          <mxGeometry x="130" y="240" width="80" height="40" as="geometry" />
        </mxCell>
        <mxCell id="ARpYUTqPWLCl9Obt1leV-38" style="edgeStyle=orthogonalEdgeStyle;rounded=0;orthogonalLoop=1;jettySize=auto;html=1;entryX=1;entryY=0.5;entryDx=0;entryDy=0;dashed=1;" edge="1" parent="1" source="ARpYUTqPWLCl9Obt1leV-11" target="ARpYUTqPWLCl9Obt1leV-16">
          <mxGeometry relative="1" as="geometry" />
        </mxCell>
        <mxCell id="ARpYUTqPWLCl9Obt1leV-42" value="2" style="edgeLabel;html=1;align=center;verticalAlign=middle;resizable=0;points=[];" vertex="1" connectable="0" parent="ARpYUTqPWLCl9Obt1leV-38">
          <mxGeometry x="-0.2" relative="1" as="geometry">
            <mxPoint x="-8" as="offset" />
          </mxGeometry>
        </mxCell>
        <mxCell id="ARpYUTqPWLCl9Obt1leV-11" value="损失" style="rounded=0;whiteSpace=wrap;html=1;fillColor=#e1d5e7;strokeColor=#9673a6;dashed=1;" vertex="1" parent="1">
          <mxGeometry x="440" y="320" width="80" height="40" as="geometry" />
        </mxCell>
        <mxCell id="ARpYUTqPWLCl9Obt1leV-28" style="edgeStyle=orthogonalEdgeStyle;rounded=0;orthogonalLoop=1;jettySize=auto;html=1;exitX=0.5;exitY=1;exitDx=0;exitDy=0;entryX=0.5;entryY=0;entryDx=0;entryDy=0;" edge="1" parent="1" source="ARpYUTqPWLCl9Obt1leV-12" target="ARpYUTqPWLCl9Obt1leV-16">
          <mxGeometry relative="1" as="geometry">
            <Array as="points">
              <mxPoint x="480" y="300" />
              <mxPoint x="320" y="300" />
            </Array>
          </mxGeometry>
        </mxCell>
        <mxCell id="ARpYUTqPWLCl9Obt1leV-40" value="1" style="edgeLabel;html=1;align=center;verticalAlign=middle;resizable=0;points=[];" vertex="1" connectable="0" parent="ARpYUTqPWLCl9Obt1leV-28">
          <mxGeometry x="-0.1" relative="1" as="geometry">
            <mxPoint as="offset" />
          </mxGeometry>
        </mxCell>
        <mxCell id="ARpYUTqPWLCl9Obt1leV-35" style="edgeStyle=orthogonalEdgeStyle;rounded=0;orthogonalLoop=1;jettySize=auto;html=1;entryX=0.5;entryY=0;entryDx=0;entryDy=0;dashed=1;" edge="1" parent="1" source="ARpYUTqPWLCl9Obt1leV-12" target="ARpYUTqPWLCl9Obt1leV-11">
          <mxGeometry relative="1" as="geometry" />
        </mxCell>
        <mxCell id="ARpYUTqPWLCl9Obt1leV-12" value="前向" style="rounded=0;whiteSpace=wrap;html=1;fillColor=#ffe6cc;strokeColor=#d79b00;" vertex="1" parent="1">
          <mxGeometry x="440" y="240" width="80" height="40" as="geometry" />
        </mxCell>
        <mxCell id="ARpYUTqPWLCl9Obt1leV-34" value="" style="edgeStyle=orthogonalEdgeStyle;rounded=0;orthogonalLoop=1;jettySize=auto;html=1;" edge="1" parent="1" source="ARpYUTqPWLCl9Obt1leV-15" target="ARpYUTqPWLCl9Obt1leV-17">
          <mxGeometry relative="1" as="geometry" />
        </mxCell>
        <mxCell id="ARpYUTqPWLCl9Obt1leV-15" value="反向" style="rounded=0;whiteSpace=wrap;html=1;fillColor=#f5f5f5;strokeColor=#666666;fontColor=#333333;" vertex="1" parent="1">
          <mxGeometry x="280" y="400" width="80" height="40" as="geometry" />
        </mxCell>
        <mxCell id="ARpYUTqPWLCl9Obt1leV-33" value="" style="edgeStyle=orthogonalEdgeStyle;rounded=0;orthogonalLoop=1;jettySize=auto;html=1;" edge="1" parent="1" source="ARpYUTqPWLCl9Obt1leV-16" target="ARpYUTqPWLCl9Obt1leV-15">
          <mxGeometry relative="1" as="geometry" />
        </mxCell>
        <mxCell id="ARpYUTqPWLCl9Obt1leV-16" value="损失" style="rounded=0;whiteSpace=wrap;html=1;fillColor=#e1d5e7;strokeColor=#9673a6;" vertex="1" parent="1">
          <mxGeometry x="280" y="320" width="80" height="40" as="geometry" />
        </mxCell>
        <mxCell id="ARpYUTqPWLCl9Obt1leV-45" style="edgeStyle=orthogonalEdgeStyle;rounded=0;orthogonalLoop=1;jettySize=auto;html=1;entryX=1;entryY=0.5;entryDx=0;entryDy=0;" edge="1" parent="1" source="ARpYUTqPWLCl9Obt1leV-17" target="ARpYUTqPWLCl9Obt1leV-5">
          <mxGeometry relative="1" as="geometry">
            <Array as="points">
              <mxPoint x="620" y="510" />
              <mxPoint x="620" y="100" />
            </Array>
          </mxGeometry>
        </mxCell>
        <mxCell id="ARpYUTqPWLCl9Obt1leV-17" value="梯度更新" style="rounded=0;whiteSpace=wrap;html=1;fillColor=#dae8fc;strokeColor=#6c8ebf;" vertex="1" parent="1">
          <mxGeometry x="280" y="490" width="80" height="40" as="geometry" />
        </mxCell>
        <mxCell id="ARpYUTqPWLCl9Obt1leV-32" style="edgeStyle=orthogonalEdgeStyle;rounded=0;orthogonalLoop=1;jettySize=auto;html=1;" edge="1" parent="1" source="ARpYUTqPWLCl9Obt1leV-25">
          <mxGeometry relative="1" as="geometry">
            <mxPoint x="320" y="320" as="targetPoint" />
          </mxGeometry>
        </mxCell>
        <mxCell id="ARpYUTqPWLCl9Obt1leV-25" value="前向" style="rounded=0;whiteSpace=wrap;html=1;fillColor=#ffe6cc;strokeColor=#d79b00;" vertex="1" parent="1">
          <mxGeometry x="280" y="240" width="80" height="40" as="geometry" />
        </mxCell>
      </root>
    </mxGraphModel>
  </diagram>
</mxfile>
